<?xml version="1.0" standalone="no"?>
<!DOCTYPE svg PUBLIC "-//W3C//DTD SVG 20010904//EN"
 "http://www.w3.org/TR/2001/REC-SVG-20010904/DTD/svg10.dtd">
<svg version="1.0" xmlns="http://www.w3.org/2000/svg"
 width="510.000000pt" height="184.000000pt" viewBox="0 0 510.000000 184.000000"
 preserveAspectRatio="xMidYMid meet">

<g transform="translate(0.000000,184.000000) scale(0.100000,-0.100000)"
fill="#000000" stroke="none">
<path d="M470 1613 c-134 -10 -344 -62 -353 -87 -16 -42 -29 -236 -24 -361 12
-303 95 -564 256 -801 78 -114 123 -164 149 -164 36 0 155 41 254 87 97 45 97
46 132 29 52 -24 91 -20 128 13 30 26 33 35 33 84 l0 55 87 89 c134 135 227
271 301 440 35 80 77 204 77 228 0 14 -160 147 -229 190 -135 83 -292 145
-444 174 -101 19 -280 31 -367 24z m205 -90 c-4 -10 -10 -30 -13 -45 -5 -33
-1 -32 -92 -13 -102 21 -156 53 -117 68 6 3 61 6 121 6 99 1 108 0 101 -16z
m-341 -83 c1 -80 -8 -87 -64 -45 -41 30 -45 30 -70 5 -39 -39 -23 -160 28
-214 l28 -31 -36 -74 c-44 -86 -46 -84 -56 79 -5 92 8 306 20 318 8 7 141 40
145 36 3 -3 5 -36 5 -74z m559 59 c94 -23 226 -77 310 -126 75 -45 217 -152
224 -170 8 -20 -50 -171 -102 -268 -50 -92 -123 -198 -185 -268 l-43 -48 -28
34 c-16 19 -53 46 -84 61 -30 14 -55 28 -55 31 0 4 30 5 67 3 63 -3 68 -1 80
22 7 14 13 57 13 95 0 59 -5 78 -30 122 -16 28 -34 54 -39 57 -6 4 -4 20 5 41
19 46 18 140 -2 199 -19 54 -81 126 -110 126 -25 1 -144 110 -120 110 10 0 54
-9 99 -21z m-434 -49 c12 -6 66 -20 120 -31 54 -11 108 -28 124 -39 l27 -21 0
30 c0 16 -5 42 -10 57 -13 32 -8 38 22 31 40 -10 105 -75 132 -130 25 -51 25
-51 26 -19 0 39 13 41 46 5 27 -29 54 -109 54 -160 0 -52 -25 -101 -54 -109
-35 -8 -33 -16 10 -39 65 -35 102 -116 89 -194 l-6 -39 -60 5 c-67 7 -132 -13
-167 -50 -57 -61 -72 -195 -33 -297 12 -30 21 -56 21 -56 0 -1 -24 -12 -52
-25 -75 -32 -184 -32 -253 1 -73 35 -164 131 -208 217 -103 207 -85 445 42
572 37 37 39 41 16 35 -68 -17 -115 34 -115 125 0 51 1 53 18 38 26 -23 98
-47 144 -47 l39 0 -22 29 c-22 31 -37 116 -25 147 6 16 8 15 29 -3 12 -11 33
-26 46 -33z m452 -736 c7 -9 39 -29 71 -45 31 -16 62 -38 68 -48 16 -31 12
-76 -10 -96 -19 -17 -21 -16 -72 40 -29 32 -58 65 -65 74 -7 9 -12 12 -13 6 0
-19 28 -64 79 -125 60 -72 67 -115 26 -155 -90 -91 -233 96 -195 255 12 52 56
110 83 110 8 0 20 -7 28 -16z"/>
<path d="M642 1038 c-18 -18 -14 -46 8 -58 15 -8 24 -6 40 10 16 16 18 25 10
40 -12 22 -40 26 -58 8z"/>
<path d="M1767 1357 c-91 -30 -152 -119 -164 -240 -11 -126 40 -233 125 -257
128 -35 242 17 242 111 0 22 -2 39 -5 39 -3 0 -27 -11 -53 -25 -50 -27 -100
-32 -134 -14 -69 37 -59 234 15 279 18 11 37 20 43 20 24 0 46 -28 51 -68 5
-40 7 -42 40 -42 97 0 113 139 21 186 -41 21 -133 27 -181 11z"/>
<path d="M2298 1363 c-52 -4 -58 -6 -58 -26 0 -12 -7 -116 -15 -231 -18 -247
-16 -256 59 -256 l44 0 7 68 c3 37 7 76 8 87 1 12 11 21 24 23 19 3 24 -5 39
-59 19 -68 64 -129 95 -129 37 0 89 28 89 48 0 10 -20 47 -45 83 l-45 64 29
25 c48 41 64 84 59 161 -3 59 -8 72 -33 99 -45 47 -82 54 -257 43z m150 -109
c34 -24 31 -95 -5 -124 -17 -13 -38 -20 -57 -18 l-31 3 2 69 c1 45 6 72 15 77
20 13 51 11 76 -7z"/>
<path d="M2850 1348 c0 -13 -7 -104 -15 -203 -8 -99 -15 -199 -15 -222 0 -67
12 -73 156 -73 124 0 124 0 134 26 23 60 18 64 -73 64 -46 0 -86 2 -88 4 -2 3
-2 31 1 63 l5 58 35 3 c74 5 80 9 80 52 l0 40 -55 0 -55 0 0 43 c0 64 14 76
89 79 62 3 65 4 73 33 14 53 10 55 -137 55 -133 0 -135 0 -135 -22z"/>
<path d="M3447 1313 c-64 -144 -147 -378 -147 -414 0 -30 29 -49 75 -49 l43 0
13 58 14 57 65 0 64 0 13 -45 c16 -57 35 -70 95 -70 40 0 48 3 48 19 0 10 -25
119 -55 242 -63 255 -65 259 -150 259 l-52 0 -26 -57z m102 -156 c6 -43 11
-82 11 -87 0 -11 -73 -14 -83 -4 -3 3 1 27 8 52 8 26 19 67 25 91 6 24 15 40
20 35 4 -5 13 -44 19 -87z"/>
<path d="M3906 1348 c-9 -12 -16 -33 -16 -45 0 -21 5 -23 53 -23 28 0 57 -4
63 -8 8 -5 7 -59 -3 -195 -14 -177 -13 -190 3 -208 12 -13 30 -19 59 -19 l42
0 6 73 c4 39 10 126 13 192 9 162 10 163 81 167 l58 3 3 43 3 42 -175 0 c-169
0 -175 -1 -190 -22z"/>
<path d="M4625 1361 c-68 -17 -126 -64 -158 -127 -44 -86 -42 -236 3 -309 41
-66 159 -94 264 -63 116 35 189 203 156 361 -24 116 -129 171 -265 138z m120
-135 c23 -35 28 -79 15 -140 -23 -113 -107 -163 -166 -99 -24 26 -26 34 -22
110 2 63 8 88 24 110 38 52 121 62 149 19z"/>
<path d="M1800 638 c0 -22 52 -233 60 -241 4 -5 20 -10 35 -11 35 -4 55 28 94
149 30 94 29 115 -10 115 -13 0 -21 -12 -29 -42 -32 -122 -43 -157 -50 -153
-4 3 -13 42 -20 87 -6 46 -16 89 -22 96 -13 15 -58 16 -58 0z"/>
<path d="M2292 633 c-43 -21 -66 -65 -66 -129 0 -63 22 -100 69 -113 77 -21
148 30 161 114 17 114 -65 177 -164 128z m96 -96 c4 -58 -17 -97 -51 -97 -33
0 -47 19 -47 65 0 57 23 87 63 83 31 -3 32 -5 35 -51z"/>
<path d="M2744 632 c-34 -22 -64 -84 -64 -133 0 -35 23 -93 40 -104 18 -11 69
-8 85 5 9 8 15 8 20 0 3 -5 17 -10 31 -10 24 0 25 2 22 58 -3 50 -6 57 -25 60
-18 3 -24 -3 -31 -30 -6 -24 -15 -34 -31 -36 -31 -5 -41 12 -41 69 0 32 6 51
18 62 25 23 53 21 59 -3 6 -23 4 -23 37 -10 30 11 36 50 11 70 -27 22 -97 23
-131 2z"/>
<path d="M3170 605 c-11 -25 -32 -80 -47 -122 -25 -72 -26 -76 -9 -89 23 -16
45 -8 52 21 7 28 21 35 57 28 17 -3 27 -13 29 -27 2 -16 11 -22 36 -24 37 -4
37 -19 1 133 -28 116 -33 125 -69 125 -27 0 -33 -6 -50 -45z m60 -82 c0 -26
-4 -33 -20 -33 -23 0 -25 13 -9 59 14 39 29 25 29 -26z"/>
<path d="M3555 573 c-3 -43 -8 -99 -11 -125 -5 -41 -3 -48 16 -58 12 -7 26 -8
31 -3 4 4 9 42 11 83 l3 75 39 -75 c21 -41 39 -76 41 -78 8 -9 46 -9 51 -1 3
6 10 60 15 121 9 117 5 138 -32 138 -17 0 -19 -8 -19 -82 0 -70 -2 -80 -14
-68 -7 8 -21 35 -30 60 -26 67 -44 90 -70 90 -23 0 -25 -4 -31 -77z"/>
</g>
</svg>
