<?xml version="1.0" standalone="no"?>
<!DOCTYPE svg PUBLIC "-//W3C//DTD SVG 20010904//EN"
 "http://www.w3.org/TR/2001/REC-SVG-20010904/DTD/svg10.dtd">
<svg version="1.0" xmlns="http://www.w3.org/2000/svg"
 width="528.000000pt" height="161.000000pt" viewBox="0 0 528.000000 161.000000"
 preserveAspectRatio="xMidYMid meet">

<g transform="translate(0.000000,161.000000) scale(0.100000,-0.100000)"
fill="#000000" stroke="none">
<path d="M420 1520 c-30 -4 -68 -11 -85 -14 -16 -4 -43 -9 -59 -12 -16 -3 -54
-13 -84 -23 -71 -21 -71 -23 -79 -271 -5 -167 0 -244 22 -350 3 -14 8 -38 11
-55 31 -174 136 -401 263 -570 77 -101 81 -105 110 -98 66 15 183 59 259 96
82 41 83 41 112 24 47 -28 96 -25 131 9 27 26 30 35 28 81 l-3 52 86 85 c47
47 107 114 133 148 100 134 193 317 238 475 l15 51 -76 65 c-163 138 -359 236
-561 283 -116 28 -357 40 -461 24z m243 -56 c34 -6 51 -28 27 -36 -5 -1 -10
-20 -12 -40 -2 -29 -5 -35 -17 -28 -9 4 -49 13 -88 20 -78 14 -133 41 -133 64
0 11 16 16 63 19 34 2 76 4 92 5 17 1 47 -1 68 -4z m232 -39 c198 -51 374
-143 523 -273 l33 -29 -26 -78 c-38 -118 -111 -256 -196 -371 -21 -29 -35 -55
-31 -59 4 -4 2 -5 -4 -3 -5 2 -25 -14 -43 -34 -18 -21 -39 -38 -45 -38 -7 0
-22 13 -34 29 -12 16 -46 41 -77 56 -30 15 -58 31 -61 36 -8 13 54 16 98 4 22
-5 29 -2 43 19 18 27 25 119 13 169 -8 34 -45 94 -60 99 -8 3 -7 22 6 68 21
74 16 130 -18 206 -22 48 -69 94 -97 94 -6 0 -36 21 -64 48 -29 26 -63 55 -76
64 l-24 17 22 1 c13 0 65 -11 118 -25z m-542 -65 c0 -88 -9 -95 -68 -55 -32
22 -42 25 -62 16 -21 -9 -23 -17 -23 -75 0 -77 8 -102 46 -139 l27 -28 -31
-67 c-17 -37 -33 -76 -37 -87 -24 -76 -46 209 -30 380 2 17 4 39 4 51 2 34 23
53 81 68 91 25 94 23 93 -64z m69 46 c26 -26 73 -44 158 -61 47 -9 100 -23
119 -31 18 -8 35 -14 37 -14 2 0 -3 21 -11 47 -9 29 -11 51 -5 57 16 16 102
-37 139 -85 23 -30 40 -43 53 -41 23 4 54 -21 75 -61 19 -38 24 -61 24 -129 1
-60 -19 -102 -54 -114 -15 -4 -11 -10 20 -31 66 -45 91 -94 86 -168 -5 -77 -8
-80 -50 -46 -81 63 -223 77 -315 30 -67 -34 -95 -73 -114 -158 -9 -42 -19 -78
-21 -81 -2 -3 -12 6 -22 19 l-18 24 7 -44 c18 -117 112 -198 229 -199 45 0 52
-2 41 -14 -20 -25 -111 -50 -175 -49 -82 1 -145 29 -220 97 -53 46 -73 74
-110 149 -62 128 -82 233 -66 347 14 93 45 167 94 218 l31 32 -26 0 c-15 0
-39 12 -56 28 -24 23 -32 40 -37 86 -5 39 -4 61 4 69 9 9 14 9 19 0 11 -18 69
-39 127 -48 48 -7 49 -6 33 12 -19 21 -38 85 -38 129 0 45 16 56 42 30z m501
-763 c8 -10 40 -31 70 -48 84 -45 110 -105 65 -152 -26 -28 -45 -29 -52 -5 -4
10 -25 36 -48 58 l-41 39 23 -35 c13 -19 38 -52 57 -72 44 -50 51 -83 27 -127
-33 -60 -98 -66 -150 -14 -46 46 -74 120 -74 196 0 76 16 119 58 154 32 28 44
28 65 6z"/>
<path d="M654 945 c-9 -23 3 -45 25 -45 21 0 33 22 25 45 -4 8 -15 15 -25 15
-11 0 -22 -7 -25 -15z"/>
<path d="M2650 1220 c-4 -8 -10 -69 -14 -135 -4 -66 -9 -147 -12 -181 -9 -86
1 -94 120 -94 98 0 116 7 116 47 0 22 -4 23 -71 23 l-70 0 3 53 3 52 42 3 c31
2 46 9 54 23 18 35 4 50 -43 47 l-43 -3 0 55 0 55 62 3 c58 3 63 5 69 28 4 14
5 27 3 29 -2 1 -51 5 -107 7 -85 2 -105 0 -112 -12z"/>
<path d="M1717 1209 c-47 -25 -85 -84 -98 -155 -9 -47 -8 -74 5 -140 8 -47 89
-103 146 -104 33 0 92 17 114 33 21 15 40 87 22 87 -6 0 -20 -6 -31 -13 -22
-15 -114 -22 -131 -10 -71 50 -26 243 56 243 34 0 50 -17 50 -52 0 -23 4 -28
25 -28 39 0 77 43 69 77 -9 38 -23 54 -61 70 -46 19 -121 16 -166 -8z"/>
<path d="M2168 1224 c-10 -3 -19 -11 -20 -17 -1 -15 -2 -25 -11 -152 -4 -55
-10 -125 -13 -156 -4 -44 -2 -59 11 -72 16 -17 75 -24 75 -9 1 25 12 119 15
130 3 6 13 12 24 12 14 0 23 -11 31 -37 29 -96 59 -123 115 -109 40 10 40 32
1 86 -20 27 -36 55 -36 61 0 6 11 20 24 30 53 42 61 159 13 207 -23 22 -34 25
-119 28 -51 2 -101 1 -110 -2z m156 -80 c9 -8 16 -31 16 -49 0 -40 -38 -75
-81 -75 -29 0 -29 0 -29 63 0 35 3 67 7 70 12 13 72 7 87 -9z"/>
<path d="M3163 1218 c-26 -34 -133 -326 -133 -363 0 -27 26 -45 64 -45 22 0
25 5 33 53 l8 52 62 3 61 3 7 -41 c8 -47 35 -70 83 -70 33 0 33 1 27 33 -19
91 -86 350 -95 367 -8 16 -21 20 -59 20 -27 0 -53 -6 -58 -12z m73 -154 c7
-52 7 -74 0 -75 -16 -2 -69 1 -72 4 -5 4 27 120 38 140 15 28 22 13 34 -69z"/>
<path d="M3527 1223 c-4 -3 -7 -17 -7 -30 0 -21 4 -23 51 -23 l52 0 -7 -117
c-4 -65 -9 -139 -12 -164 -7 -53 11 -79 55 -79 27 0 28 2 34 63 4 34 9 109 13
167 3 58 7 111 9 118 3 7 23 12 54 12 35 0 51 4 55 16 16 43 13 44 -142 44
-82 0 -152 -3 -155 -7z"/>
<path d="M4095 1216 c-93 -40 -144 -165 -115 -285 39 -165 279 -159 347 9 17
42 21 72 20 126 -3 77 -18 111 -64 141 -33 22 -145 27 -188 9z m134 -92 c37
-47 26 -151 -21 -201 -25 -27 -82 -31 -112 -8 -24 18 -33 100 -16 158 20 75
107 104 149 51z"/>
<path d="M4819 1198 c0 -18 -6 -105 -13 -193 -11 -149 -11 -160 6 -177 10 -10
32 -18 48 -18 29 0 30 1 31 53 0 28 2 59 4 67 1 9 6 73 10 143 8 144 3 157
-51 157 -32 0 -34 -2 -35 -32z"/>
<path d="M5121 1033 c-13 -188 -12 -197 5 -210 11 -8 33 -13 49 -11 l30 3 13
193 c15 217 14 222 -47 222 l-37 0 -13 -197z"/>
<path d="M1819 563 c-3 -18 41 -214 52 -235 6 -11 21 -18 38 -18 25 0 31 7 51
51 25 60 60 166 60 184 0 16 -30 29 -41 18 -4 -4 -10 -21 -14 -38 -14 -75 -41
-160 -50 -157 -13 3 -24 43 -31 107 -7 56 -27 95 -49 95 -8 0 -16 -3 -16 -7z"/>
<path d="M2320 559 c-53 -22 -80 -72 -80 -145 0 -37 6 -51 29 -75 33 -33 71
-37 125 -15 64 27 91 156 44 211 -26 29 -79 40 -118 24z m70 -49 c23 -14 20
-102 -4 -129 -23 -25 -58 -27 -81 -4 -24 24 -15 101 15 125 25 20 47 23 70 8z"/>
<path d="M2763 550 c-48 -25 -63 -56 -63 -137 0 -45 4 -58 26 -80 20 -19 31
-24 52 -18 35 8 52 8 78 0 20 -6 22 -3 26 40 2 25 0 53 -5 61 -13 22 -37 17
-37 -9 0 -42 -49 -64 -78 -35 -18 18 -15 85 5 119 21 35 62 40 70 8 8 -30 47
-21 51 12 6 51 -59 72 -125 39z"/>
<path d="M3182 523 c-37 -88 -65 -182 -58 -198 9 -24 39 -14 46 15 5 21 13 26
46 28 36 3 40 0 51 -28 8 -21 18 -30 33 -30 18 0 21 4 16 28 -4 15 -8 36 -10
47 -13 64 -40 162 -49 173 -5 6 -20 12 -32 12 -17 0 -27 -11 -43 -47z m58 -40
c0 -16 3 -38 6 -50 6 -20 3 -23 -26 -23 -30 0 -31 1 -25 33 15 65 45 92 45 40z"/>
<path d="M3565 451 c-7 -122 -5 -141 21 -141 11 0 14 17 14 80 0 104 14 103
62 0 32 -69 41 -80 63 -80 22 0 25 4 25 38 0 20 3 76 7 124 5 76 4 88 -11 94
-26 10 -29 1 -28 -86 0 -105 -16 -105 -58 -1 -17 44 -38 82 -47 85 -38 15 -41
8 -48 -113z"/>
</g>
</svg>
